<svg xmlns="http://www.w3.org/2000/svg" xmlns:xlink="http://www.w3.org/1999/xlink" width="300" zoomAndPan="magnify" viewBox="0 0 224.87999 225" height="300" preserveAspectRatio="xMidYMid meet" version="1.0"><defs><clipPath id="186fd65ffe"><path d="M 32.445312 35.332031 L 192.433594 35.332031 L 192.433594 61.40625 L 32.445312 61.40625 Z M 32.445312 35.332031 " clip-rule="nonzero"/></clipPath><clipPath id="c389e376cc"><path d="M 32.445312 99.289062 L 192.433594 99.289062 L 192.433594 125.363281 L 32.445312 125.363281 Z M 32.445312 99.289062 " clip-rule="nonzero"/></clipPath><clipPath id="c18094ee63"><path d="M 32.445312 163.59375 L 192.433594 163.59375 L 192.433594 189.667969 L 32.445312 189.667969 Z M 32.445312 163.59375 " clip-rule="nonzero"/></clipPath></defs><g clip-path="url(#186fd65ffe)"><path fill="#000000" d="M 32.445312 35.332031 L 192.460938 35.332031 L 192.460938 61.40625 L 32.445312 61.40625 Z M 32.445312 35.332031 " fill-opacity="1" fill-rule="nonzero"/></g><g clip-path="url(#c389e376cc)"><path fill="#000000" d="M 32.445312 99.289062 L 192.460938 99.289062 L 192.460938 125.363281 L 32.445312 125.363281 Z M 32.445312 99.289062 " fill-opacity="1" fill-rule="nonzero"/></g><g clip-path="url(#c18094ee63)"><path fill="#000000" d="M 32.445312 163.59375 L 192.460938 163.59375 L 192.460938 189.667969 L 32.445312 189.667969 Z M 32.445312 163.59375 " fill-opacity="1" fill-rule="nonzero"/></g></svg>